<svg xmlns="http://www.w3.org/2000/svg" viewBox="0 0 537 134" preserveAspectRatio="xMidYMid meet" version="1.1" xmlns:xlink="http://www.w3.org/1999/xlink" data-browser="Chrome[51.0]"><g class="logo__item" id="logo__item--logo_0">
    <g class="logo__item__inner" transform="translate(-3.437999999999988 -1.5) scale(0.901578) rotate(0)">
        <g>
	<g>
		<path fill="#466289" stroke="#fcfcfc" stroke-width="1" d="M 85.3 105.2 c 0 7.8 -2 12.8 -6 15.2 c -2.4 1.1 -5.1 1.7 -8 1.7 l -24.5 0.1 c -6.7 0 -11.1 3.1 -13.1 9.2 l -0.3 2.9 l 0 5.1 l 0.6 0.6 l 37.7 -0.1 c 16.3 0 26.6 -8.4 31.1 -25.2 l 0.6 -7.5 l 0 -19.8 l -18 0.1 L 85.3 105.2 Z" vector-effect="non-scaling-stroke"></path>
	</g>
	<g>
		<path fill="#466289" stroke="#fcfcfc" stroke-width="1" d="M 103 7.5 l -0.6 -0.6 l -3.4 0 c -6.7 0 -11.1 2.9 -13.1 8.6 c -0.5 1.1 -0.8 2.9 -0.8 5.4 l 0.1 48.5 l 18 -0.1 L 103 7.5 Z" vector-effect="non-scaling-stroke"></path>
	</g>
	<g>
		<path fill="#fa6121" stroke="#fcfcfc" stroke-width="1" d="M 141.2 69.9 l -0.6 -0.6 l -37.4 0.1 l -18 0.1 l -44.3 0.1 l -7.5 0.6 c -16.7 4.5 -25.1 14.9 -25 31.2 l 0.1 37.7 l 0.6 0.6 l 5.1 0 l 2.9 -0.3 c 6.1 -2.1 9.1 -6.5 9.1 -13.2 l -0.1 -24.5 c 0 -2.9 0.5 -5.6 1.7 -8 c 2.3 -4 7.3 -6.1 15.1 -6.1 l 42.2 -0.1 l 18 -0.1 l 24.1 -0.1 c 2.5 0 4.3 -0.3 5.4 -0.8 c 5.7 -2 8.6 -6.4 8.5 -13.2 L 141.2 69.9 Z" vector-effect="non-scaling-stroke"></path>
	</g>
</g>
    </g>
</g><g class="logo__item logo__item--active" id="logo__item--business">
                <g class="logo__item__inner" transform="translate(130.08999999999997 113.731) scale(2.60943) rotate(0)">
                    <text letter-spacing="0px" font-family="'Montserrat-Bold'" font-size="32px" font-style="normal" font-weight="normal" alignment-baseline="auto" dominant-baseline="auto" fill="#466289" stroke="#ffffff" stroke-width="1" dy="" vector-effect="non-scaling-stroke">docscope</text>
                </g>
            </g></svg>